<svg width="693" height="616" viewBox="0 0 693 616" fill="none" xmlns="http://www.w3.org/2000/svg">
<g id="undraw_to_the_moon_re_q21i 1">
<g id="Group 1">
<path id="Vector" d="M691.1 307.75C679.2 404.07 617.02 489.46 537.42 544.98C530.96 549.49 524.34 553.817 517.56 557.96C516.71 558.48 515.86 559 515.01 559.51C467.71 587.89 413.52 606.07 359.08 600.4C314.85 595.8 271.42 572.27 245.5 537.12C245.01 536.46 244.52 535.78 244.05 535.11C233.491 520.466 226.331 503.651 223.09 485.89C218.43 459.6 222.05 430.53 207.57 408.1C188.79 379 148.57 374.26 113.96 375.35C81.61 376.36 49.31 379.86 17 381.68C16.34 381.72 15.67 381.75 15 381.79V72.69C15.0072 66.6745 17.4001 60.9074 21.6537 56.6537C25.9074 52.4001 31.6745 50.0072 37.69 50H178.42C185.23 50.89 190.05 64.55 196.84 65C199.78 65.2 202.717 65.36 205.65 65.48C221.08 66.12 236.49 65.85 251.88 65C260.87 64.51 271.86 50.82 280.84 50H540.7C542.64 50.64 544.56 51.31 546.48 52C554.753 54.9813 562.835 58.4678 570.68 62.44C657.24 106.33 703 211.43 691.1 307.75Z" fill="url(#paint0_linear_2_178)"/>
<path id="Vector_2" d="M579.39 176.14C539.1 213.64 485.73 237.7 430.91 243.47C425.53 244.04 420.137 244.43 414.73 244.64C413.53 244.69 412.33 244.72 411.12 244.75C409.16 244.8 407.19 244.82 405.23 244.82C402.88 244.82 400.53 244.787 398.18 244.72C384.577 244.323 371.027 242.842 357.66 240.29C357.17 240.19 356.69 240.1 356.2 240C354.09 239.59 351.987 239.15 349.89 238.68C345.87 237.79 341.87 236.803 337.89 235.72C336.6 235.37 335.31 235.01 334.02 234.63C332.17 234.1 330.33 233.54 328.49 232.97C327.8 232.75 327.11 232.54 326.42 232.31C325.72 232.09 325.02 231.86 324.32 231.62C320.05 230.22 315.817 228.7 311.62 227.06C287.719 217.826 265.345 205.046 245.25 189.15C242.47 186.94 239.65 184.62 236.93 182.37C222.31 170.31 207.19 157.84 188.76 155.12C168.86 152.19 149.74 161.25 131.26 170.01C124.99 172.98 118.51 176.05 112.1 178.62C80.8091 190.946 46.324 192.594 14 183.31C13.33 183.13 12.66 182.93 12 182.73V180.64C12.66 180.84 13.33 181.04 14 181.23C46.0531 190.561 80.2968 188.989 111.36 176.76C117.71 174.22 124.17 171.16 130.41 168.2C149.16 159.31 168.55 150.12 189.05 153.14C208.03 155.94 223.37 168.59 238.2 180.83C240.92 183.07 243.73 185.39 246.49 187.59C266.452 203.385 288.682 216.077 312.43 225.24H312.44C316.46 226.8 320.53 228.27 324.62 229.63C325.21 229.82 325.8 230.01 326.39 230.21C327.05 230.42 327.72 230.63 328.38 230.84C330.07 231.38 331.763 231.893 333.46 232.38C335.12 232.88 336.79 233.353 338.47 233.8H338.48C342.78 234.97 347.107 236.027 351.46 236.97C353.43 237.41 355.4 237.81 357.39 238.19C357.82 238.28 358.26 238.36 358.7 238.44C371.524 240.86 384.516 242.284 397.56 242.7H397.57C402.1 242.84 406.623 242.857 411.14 242.75C412.32 242.72 413.49 242.68 414.66 242.64C419.77 242.44 424.873 242.08 429.97 241.56H429.98C484.63 235.97 537.87 212.05 578.03 174.67C578.225 174.491 578.483 174.396 578.748 174.407C579.013 174.418 579.262 174.533 579.442 174.728C579.622 174.922 579.717 175.18 579.708 175.445C579.698 175.709 579.584 175.959 579.39 176.14Z" fill="#6C63FF"/>
<path id="Vector_3" d="M12.31 137.94C12.2484 138.196 12.1436 138.439 12 138.66V135.87C12.3652 136.495 12.4761 137.236 12.31 137.94Z" fill="#A94710"/>
<path id="Vector_4" d="M20.2007 148.532C20.4013 146.736 19.5513 145.167 18.3022 145.028C17.053 144.888 15.8777 146.231 15.677 148.026C15.4764 149.822 16.3264 151.391 17.5756 151.531C18.8247 151.67 20 150.328 20.2007 148.532Z" fill="#E6E6E6"/>
<path id="Vector_5" d="M22.9836 169.74C23.1843 167.944 22.3343 166.375 21.0851 166.236C19.8359 166.096 18.6606 167.439 18.46 169.234C18.2593 171.03 19.1093 172.599 20.3585 172.738C21.6077 172.878 22.783 171.536 22.9836 169.74Z" fill="url(#paint1_linear_2_178)"/>
<path id="Vector_6" d="M521.921 327.034C522.409 325.106 520.559 322.974 517.787 322.272C515.016 321.569 512.373 322.563 511.885 324.491C511.396 326.419 513.247 328.551 516.018 329.253C518.789 329.956 521.432 328.962 521.921 327.034Z" fill="#F0F0F0"/>
<path id="Vector_7" d="M384.921 154.034C385.409 152.106 383.559 149.974 380.787 149.272C378.016 148.569 375.373 149.563 374.885 151.491C374.396 153.419 376.247 155.551 379.018 156.253C381.789 156.956 384.432 155.962 384.921 154.034Z" fill="#F0F0F0"/>
<path id="Vector_8" d="M479.921 275.034C480.409 273.106 478.559 270.974 475.787 270.272C473.016 269.569 470.373 270.563 469.885 272.491C469.396 274.419 471.247 276.551 474.018 277.253C476.789 277.956 479.432 276.962 479.921 275.034Z" fill="#F0F0F0"/>
<path id="Vector_9" d="M304.921 301.034C305.409 299.106 303.559 296.974 300.787 296.272C298.016 295.569 295.373 296.563 294.885 298.491C294.396 300.419 296.247 302.551 299.018 303.253C301.789 303.956 304.432 302.962 304.921 301.034Z" fill="#F0F0F0"/>
<path id="Vector_10" d="M483.117 338.648C483.605 336.72 481.755 334.588 478.984 333.885C476.212 333.183 473.57 334.176 473.081 336.104C472.592 338.032 474.443 340.164 477.214 340.867C479.986 341.569 482.628 340.576 483.117 338.648Z" fill="url(#paint2_linear_2_178)"/>
<path id="Vector_11" d="M523.311 366.944C523.8 365.016 521.95 362.884 519.178 362.182C516.407 361.48 513.764 362.473 513.276 364.401C512.787 366.329 514.637 368.461 517.409 369.163C520.18 369.866 522.823 368.872 523.311 366.944Z" fill="#A94710"/>
<path id="Vector_12" d="M306.921 505.034C307.409 503.106 305.559 500.974 302.787 500.272C300.016 499.569 297.373 500.563 296.885 502.491C296.396 504.419 298.247 506.551 301.018 507.253C303.789 507.956 306.432 506.962 306.921 505.034Z" fill="#A94710"/>
<path id="Vector_13" d="M625.921 275.034C626.409 273.106 624.559 270.974 621.787 270.272C619.016 269.569 616.373 270.563 615.885 272.491C615.396 274.419 617.247 276.551 620.018 277.253C622.789 277.956 625.432 276.962 625.921 275.034Z" fill="#A94710"/>
<path id="Vector_14" d="M531.201 377.532C531.401 375.736 530.551 374.167 529.302 374.028C528.053 373.888 526.878 375.231 526.677 377.026C526.476 378.822 527.326 380.391 528.576 380.531C529.825 380.67 531 379.328 531.201 377.532Z" fill="#E6E6E6"/>
<path id="Vector_15" d="M533.984 398.74C534.184 396.944 533.334 395.375 532.085 395.236C530.836 395.096 529.661 396.439 529.46 398.234C529.259 400.03 530.109 401.599 531.359 401.738C532.608 401.878 533.783 400.535 533.984 398.74Z" fill="url(#paint3_linear_2_178)"/>
<path id="Vector_16" d="M499.383 358.324C499.584 356.528 498.734 354.959 497.485 354.82C496.236 354.68 495.06 356.023 494.86 357.818C494.659 359.614 495.509 361.183 496.758 361.323C498.007 361.462 499.183 360.12 499.383 358.324Z" fill="#E6E6E6"/>
<path id="Vector_17" d="M516.415 351.925C516.616 350.13 515.766 348.561 514.517 348.421C513.267 348.282 512.092 349.624 511.891 351.42C511.691 353.216 512.541 354.785 513.79 354.924C515.039 355.064 516.214 353.721 516.415 351.925Z" fill="#A94710"/>
<path id="Vector_18" d="M495.433 334.639C495.634 332.843 494.784 331.274 493.534 331.135C492.285 330.995 491.11 332.338 490.909 334.134C490.709 335.929 491.559 337.498 492.808 337.638C494.057 337.777 495.232 336.435 495.433 334.639Z" fill="url(#paint4_linear_2_178)"/>
<path id="Vector_19" d="M61.9604 101.866C62.449 99.9379 60.5984 97.8057 57.8271 97.1034C55.0557 96.4011 52.413 97.3946 51.9244 99.3225C51.4359 101.25 53.2864 103.383 56.0578 104.085C58.8291 104.787 61.4718 103.794 61.9604 101.866Z" fill="#F0F0F0"/>
<path id="Vector_20" d="M28.1169 101.648C28.6055 99.7198 26.7549 97.5875 23.9836 96.8852C21.2122 96.1829 18.5695 97.1764 18.0809 99.1043C17.5924 101.032 19.4429 103.164 22.2143 103.867C24.9856 104.569 27.6283 103.576 28.1169 101.648Z" fill="url(#paint5_linear_2_178)"/>
<path id="Vector_21" d="M68.3115 129.944C68.8001 128.016 66.9495 125.884 64.1781 125.182C61.4068 124.48 58.7641 125.473 58.2755 127.401C57.7869 129.329 59.6375 131.461 62.4088 132.163C65.1802 132.866 67.8229 131.872 68.3115 129.944Z" fill="#A94710"/>
<path id="Vector_22" d="M76.2007 140.532C76.4013 138.736 75.5513 137.167 74.3022 137.028C73.053 136.888 71.8777 138.231 71.677 140.026C71.4764 141.822 72.3264 143.391 73.5756 143.531C74.8247 143.67 76 142.328 76.2007 140.532Z" fill="#E6E6E6"/>
<path id="Vector_23" d="M78.9836 161.74C79.1843 159.944 78.3343 158.375 77.0851 158.236C75.8359 158.096 74.6606 159.439 74.46 161.234C74.2593 163.03 75.1093 164.599 76.3585 164.738C77.6077 164.878 78.783 163.536 78.9836 161.74Z" fill="url(#paint6_linear_2_178)"/>
<path id="Vector_24" d="M44.3833 121.324C44.584 119.528 43.734 117.959 42.4848 117.82C41.2356 117.68 40.0603 119.023 39.8596 120.818C39.659 122.614 40.509 124.183 41.7582 124.323C43.0073 124.462 44.1827 123.12 44.3833 121.324Z" fill="#E6E6E6"/>
<path id="Vector_25" d="M61.415 114.925C61.6157 113.13 60.7657 111.561 59.5165 111.421C58.2673 111.282 57.092 112.624 56.8914 114.42C56.6907 116.216 57.5407 117.785 58.7899 117.924C60.0391 118.064 61.2144 116.721 61.415 114.925Z" fill="#A94710"/>
<path id="Vector_26" d="M40.4329 97.6389C40.6335 95.8432 39.7835 94.2744 38.5343 94.1348C37.2852 93.9952 36.1098 95.3378 35.9092 97.1335C35.7086 98.9291 36.5586 100.498 37.8077 100.638C39.0569 100.777 40.2322 99.4346 40.4329 97.6389Z" fill="url(#paint7_linear_2_178)"/>
<path id="Vector_27" d="M170.373 245.095C172.582 245.095 174.373 243.304 174.373 241.095C174.373 238.886 172.582 237.095 170.373 237.095C168.164 237.095 166.373 238.886 166.373 241.095C166.373 243.304 168.164 245.095 170.373 245.095Z" fill="#F0F0F0"/>
<path id="Vector_28" d="M72.3728 283.095C73.4774 283.095 74.3728 282.2 74.3728 281.095C74.3728 279.991 73.4774 279.095 72.3728 279.095C71.2682 279.095 70.3728 279.991 70.3728 281.095C70.3728 282.2 71.2682 283.095 72.3728 283.095Z" fill="#F0F0F0"/>
<path id="Vector_29" d="M469.373 432.095C470.477 432.095 471.373 431.2 471.373 430.095C471.373 428.991 470.477 428.095 469.373 428.095C468.268 428.095 467.373 428.991 467.373 430.095C467.373 431.2 468.268 432.095 469.373 432.095Z" fill="#F0F0F0"/>
<path id="Vector_30" d="M211.373 340.095C212.477 340.095 213.373 339.2 213.373 338.095C213.373 336.991 212.477 336.095 211.373 336.095C210.268 336.095 209.373 336.991 209.373 338.095C209.373 339.2 210.268 340.095 211.373 340.095Z" fill="#F0F0F0"/>
<path id="Vector_31" d="M247.373 131.095C248.477 131.095 249.373 130.2 249.373 129.095C249.373 127.991 248.477 127.095 247.373 127.095C246.268 127.095 245.373 127.991 245.373 129.095C245.373 130.2 246.268 131.095 247.373 131.095Z" fill="#F0F0F0"/>
<path id="Vector_32" d="M574.373 208.095C575.477 208.095 576.373 207.2 576.373 206.095C576.373 204.991 575.477 204.095 574.373 204.095C573.268 204.095 572.373 204.991 572.373 206.095C572.373 207.2 573.268 208.095 574.373 208.095Z" fill="#F0F0F0"/>
<path id="Vector_33" d="M109.373 104.095C110.477 104.095 111.373 103.2 111.373 102.095C111.373 100.991 110.477 100.095 109.373 100.095C108.268 100.095 107.373 100.991 107.373 102.095C107.373 103.2 108.268 104.095 109.373 104.095Z" fill="#F0F0F0"/>
<path id="Vector_34" d="M473.373 94.0953C475.582 94.0953 477.373 92.3045 477.373 90.0953C477.373 87.8862 475.582 86.0953 473.373 86.0953C471.164 86.0953 469.373 87.8862 469.373 90.0953C469.373 92.3045 471.164 94.0953 473.373 94.0953Z" fill="#F0F0F0"/>
</g>
</g>
<defs>
<linearGradient id="paint0_linear_2_178" x1="353.98" y1="50" x2="353.98" y2="601.435" gradientUnits="userSpaceOnUse">
<stop offset="0.159375" stop-color="#483FAE"/>
<stop offset="1" stop-color="#5AF7C7" stop-opacity="0.49"/>
</linearGradient>
<linearGradient id="paint1_linear_2_178" x1="18.46" y1="169.234" x2="22.9836" y2="169.74" gradientUnits="userSpaceOnUse">
<stop offset="0.159375" stop-color="#483FAE"/>
<stop offset="1" stop-color="#5AF7C7" stop-opacity="0.49"/>
</linearGradient>
<linearGradient id="paint2_linear_2_178" x1="473.081" y1="336.104" x2="483.117" y2="338.648" gradientUnits="userSpaceOnUse">
<stop offset="0.159375" stop-color="#483FAE"/>
<stop offset="1" stop-color="#5AF7C7" stop-opacity="0.49"/>
</linearGradient>
<linearGradient id="paint3_linear_2_178" x1="529.46" y1="398.234" x2="533.984" y2="398.74" gradientUnits="userSpaceOnUse">
<stop offset="0.159375" stop-color="#483FAE"/>
<stop offset="1" stop-color="#5AF7C7" stop-opacity="0.49"/>
</linearGradient>
<linearGradient id="paint4_linear_2_178" x1="490.909" y1="334.134" x2="495.433" y2="334.639" gradientUnits="userSpaceOnUse">
<stop offset="0.159375" stop-color="#483FAE"/>
<stop offset="1" stop-color="#5AF7C7" stop-opacity="0.49"/>
</linearGradient>
<linearGradient id="paint5_linear_2_178" x1="18.0809" y1="99.1043" x2="28.1169" y2="101.648" gradientUnits="userSpaceOnUse">
<stop offset="0.159375" stop-color="#483FAE"/>
<stop offset="1" stop-color="#5AF7C7" stop-opacity="0.49"/>
</linearGradient>
<linearGradient id="paint6_linear_2_178" x1="74.46" y1="161.234" x2="78.9836" y2="161.74" gradientUnits="userSpaceOnUse">
<stop offset="0.159375" stop-color="#483FAE"/>
<stop offset="1" stop-color="#5AF7C7" stop-opacity="0.49"/>
</linearGradient>
<linearGradient id="paint7_linear_2_178" x1="35.9092" y1="97.1335" x2="40.4329" y2="97.6389" gradientUnits="userSpaceOnUse">
<stop offset="0.159375" stop-color="#483FAE"/>
<stop offset="1" stop-color="#5AF7C7" stop-opacity="0.49"/>
</linearGradient>
</defs>
</svg>
